#!OML:ASF \\Waltz\H\Terrain\Patient Classification 1\Animal1\Tuesday\Animal1.ASF
:FULLY-SPECIFIED
:DEGREES
3123
root 13.3012 14.9955 2.42567 26.427 20.6966 -11.3334
lowerback 31.0424 -3.30682 -0.847994
upperback -3.44547 -3.5059 5.82976
thorax -20.3214 -0.884487 8.78506
lowerneck 7.25926 -19.0806 -10.4437
upperneck -26.7345 -22.0219 36.991
head -2.86866 -13.8362 13.9932
rclavicle 2.62396e-014 -3.65764e-014
rhumerus -74.1819 29.6833 -103.494
rradius 38.1582
rwrist -8.97578
rhand -1.61015 19.8429
rfingers 7.12502
rthumb 24.0473 351.33
lclavicle 2.62396e-014 -3.65764e-014
lhumerus -72.5483 -11.7627 95.4205
lradius 42.2609
lwrist -20.9715
lhand -13.5653 -322.916
lfingers 7.12502
lthumb 12.5482 1146.69
rfemur -68.7216 20.5686 20.5848
rtibia 57.5859
rfoot -18.4936 -8.57751
rtoes -2.1002
lfemur -66.3395 3.8371 14.833
ltibia 51.1305
lfoot -13.7558 9.64227
ltoes -35.3437
3124
root 13.3087 15.0036 2.41533 26.3061 20.6952 -11.3276
lowerback 31.3804 -3.40047 -0.877901
upperback -3.41315 -3.61506 5.92041
thorax -20.4284 -0.911544 8.97893
lowerneck 7.32041 -19.0815 -10.4111
upperneck -26.7762 -22.0249 36.9325
head -2.90656 -13.8434 13.9846
rclavicle -3.33958e-014 1.27222e-014
rhumerus -74.0786 29.8043 -103.402
rradius 38.1682
rwrist -9.11074
rhand -8.48087 24.838
rfingers 7.12502
rthumb 17.4461 355.601
lclavicle -3.33958e-014 1.27222e-014
lhumerus -72.4231 -11.5003 94.9472
lradius 42.3356
lwrist -21.5341
lhand -13.7972 -323.551
lfingers 7.12502
lthumb 12.3246 1146.07
rfemur -68.5116 20.5394 20.5931
rtibia 57.4451
rfoot -18.5192 -8.35339
rtoes -0.351185
lfemur -66.2077 3.67847 14.8446
ltibia 51.0604
lfoot -13.953 9.5617
ltoes -34.3675
3125
root 13.3157 15.0097 2.40484 26.3643 20.5259 -11.276
lowerback 31.4284 -3.44456 -0.975232
upperback -3.39884 -3.7134 5.91351
thorax -20.4133 -0.942548 9.07166
lowerneck 7.37955 -19.0687 -10.2658
upperneck -26.8127 -21.9864 36.8929
head -2.9665 -13.841 13.978
rclavicle -2.62396e-014 -2.22639e-014
rhumerus -74.1644 30.0075 -103.753
rradius 38.0779
rwrist -9.36182
rhand -12.3761 26.4973
rfingers 7.12502
rthumb 13.6945 356.968
lclavicle -2.62396e-014 -2.22639e-014
lhumerus -72.2838 -11.2422 94.2533
lradius 42.24
lwrist -22.1408
lhand -13.7728 -324.332
lfingers 7.12502
lthumb 12.3482 1145.28
rfemur -68.5051 20.5636 20.4775
rtibia 57.3261
rfoot -18.4522 -8.36269
rtoes -0.912543
lfemur -66.1448 3.64834 14.7919
ltibia 51.0404
lfoot -14.1428 9.52337
ltoes -33.0543
3126
root 13.3213 15.01 2.395 26.4939 20.2861 -11.3118
lowerback 31.3308 -3.4283 -1.01237
upperback -3.37447 -3.71143 5.90606
thorax -20.3313 -0.944391 9.07234
lowerneck 7.40959 -19.075 -10.185
upperneck -27.0161 -21.9324 37.0672
head -3.02484 -13.8573 14.066
rclavicle -3.18055e-015 9.54166e-015
rhumerus -74.2123 30.1811 -104.14
rradius 38.0471
rwrist -9.36237
rhand -10.6237 24.9792
rfingers 7.12502
rthumb 15.3829 355.572
lclavicle -3.18055e-015 9.54166e-015
lhumerus -72.1823 -11.3243 93.9221
lradius 42.2406
lwrist -22.3993
lhand -14.0079 -324.299
lfingers 7.12502
lthumb 12.1215 1145.33
rfemur -68.6654 20.6923 20.3563
rtibia 57.2068
rfoot -18.2797 -8.46903
rtoes -2.25676
lfemur -66.1606 3.79427 14.7864
ltibia 51.0606
lfoot -14.1247 9.57568
ltoes -32.5091
3127
root 13.3297 15.0104 2.38248 26.5522 20.1807 -11.4225
lowerback 31.2963 -3.42358 -0.82911
upperback -3.32754 -3.62887 5.93167
thorax -20.275 -0.93399 8.95369
lowerneck 7.46767 -19.1141 -10.2328
upperneck -27.3719 -21.9035 37.3929
head -3.07887 -13.9032 14.2348
rclavicle -3.81667e-014 1.43125e-014
rhumerus -74.1309 30.1513 -104.23
rradius 38.1777
rwrist -9.11418
rhand -5.81821 26.4318
rfingers 7.12502
rthumb 20.0071 357.442
lclavicle -3.81667e-014 1.43125e-014
lhumerus -72.0389 -11.6445 93.83
lradius 42.3773
lwrist -22.5276
lhand -14.0357 -323.755
lfingers 7.12502
lthumb 12.0947 1145.88
rfemur -68.7505 20.7232 20.377
rtibia 57.0696
rfoot -18.1473 -8.43648
rtoes -2.37986
lfemur -66.21 3.88296 14.8544
ltibia 51.1057
lfoot -13.9643 9.76013
ltoes -33.5046
3128
root 13.3393 15.0177 2.37171 26.5984 20.1495 -11.4936
lowerback 31.2931 -3.4906 -0.630531
upperback -3.30216 -3.63738 5.94553
thorax -20.249 -0.961152 8.85846
lowerneck 7.39376 -19.1168 -10.2973
upperneck -27.4195 -21.8947 37.5581
head -3.04161 -13.9119 14.2921
rclavicle 5.08889e-014 6.36111e-015
rhumerus -74.1082 30.1771 -104.317
rradius 38.3066
rwrist -9.17607
rhand -5.6096 26.7693
rfingers 7.12502
rthumb 20.2076 357.8
lclavicle 5.08889e-014 6.36111e-015
lhumerus -71.7513 -11.6005 93.3497
lradius 42.2634
lwrist -22.9343
lhand -14.0941 -323.745
lfingers 7.12502
lthumb 12.0383 1145.89
rfemur -68.7471 20.6841 20.4009
rtibia 56.9102
rfoot -18.0679 -8.33543
rtoes -2.15246
lfemur -66.2465 3.89243 14.8778
ltibia 51.1223
lfoot -13.8067 10.0719
ltoes -34.5598
3129
root 13.3459 15.0249 2.36478 26.6766 20.101 -11.5691
lowerback 31.271 -3.56604 -0.491824
upperback -3.33165 -3.68298 5.94837
thorax -20.2764 -0.993389 8.80619
lowerneck 7.27976 -19.0861 -10.3235
upperneck -27.2586 -21.8869 37.5364
head -2.97662 -13.8866 14.2527
rclavicle 5.56597e-014 -3.33958e-014
rhumerus -74.0554 30.1026 -104.308
rradius 38.3466
rwrist -9.18293
rhand -5.65252 27.0514
rfingers 7.12502
rthumb 20.1664 358.078
lclavicle 5.56597e-014 -3.33958e-014
lhumerus -71.5873 -11.3863 92.7156
lradius 42.1531
lwrist -23.3981
lhand -13.8175 -323.875
lfingers 7.12502
lthumb 12.3051 1145.74
rfemur -68.7922 20.7147 20.3774
rtibia 56.7459
rfoot -17.9993 -8.25803
rtoes -2.52673
lfemur -66.3084 3.95606 14.9002
ltibia 51.0915
lfoot -13.6389 10.3773
ltoes -35.3417
3130
root 13.347 15.0303 2.36137 26.7195 19.9419 -11.5739
lowerback 31.2669 -3.53498 -0.554623
upperback -3.33614 -3.66786 5.94284
thorax -20.2793 -0.980301 8.82856
lowerneck 7.3039 -19.03 -10.3541
upperneck -27.3096 -21.8042 37.52
head -3.01381 -13.8465 14.2781
rclavicle 2.22639e-014 4.92986e-014
rhumerus -74.5273 30.1563 -104.906
rradius 38.4283
rwrist -8.09855
rhand -9.42835 27.7306
rfingers 7.12502
rthumb 16.5341 358.415
lclavicle 2.22639e-014 4.92986e-014
lhumerus -71.5346 -11.3265 92.2348
lradius 42.2357
lwrist -23.7005
lhand -13.2149 -323.239
lfingers 7.12502
lthumb 12.8861 1146.34
rfemur -68.8004 20.8087 20.3029
rtibia 56.6151
rfoot -18.0003 -7.84134
rtoes -0.777915
lfemur -66.2414 4.02568 14.8576
ltibia 51.0159
lfoot -13.5704 10.499
ltoes -35.5253
3131
root 13.346 15.0371 2.3584 26.7506 19.741 -11.456
lowerback 31.3214 -3.47202 -0.818163
upperback -3.30814 -3.6862 5.94779
thorax -20.2535 -0.959543 8.99166
lowerneck 7.31227 -18.975 -10.3831
upperneck -27.4405 -21.7075 37.5135
head -3.07304 -13.8052 14.3162
rclavicle -6.59965e-014 1.145e-013
rhumerus -75.9802 30.7462 -106.914
rradius 38.3326
rwrist -5.08604
rhand -17.7486 28.6159
rfingers 7.12502
rthumb 8.51294 358.807
lclavicle -6.59965e-014 1.145e-013
lhumerus -71.4475 -11.4243 92.0397
lradius 42.2337
lwrist -23.5626
lhand -12.8827 -322.618
lfingers 7.12502
lthumb 13.2062 1146.94
rfemur -68.7743 20.8897 20.1322
rtibia 56.5258
rfoot -18.0921 -6.98974
rtoes 4.11438
lfemur -66.0783 3.99568 14.7508
ltibia 50.9108
lfoot -13.6523 10.4166
ltoes -34.7056
3132
root 13.35 15.0412 2.35008 26.9041 19.6097 -11.2819
lowerback 31.2684 -3.47904 -0.960948
upperback -3.30923 -3.76061 5.9141
thorax -20.21 -0.979608 9.06166
lowerneck 7.30941 -18.9354 -10.4453
upperneck -27.5139 -21.6422 37.5906
head -3.08604 -13.782 14.3709
rclavicle -3.26007e-014 1.59028e-014
rhumerus -76.2052 30.9264 -107.345
rradius 38.3514
rwrist -4.92566
rhand -12.8352 29.242
rfingers 7.12502
rthumb 13.2521 359.683
lclavicle -3.26007e-014 1.59028e-014
lhumerus -71.3901 -11.7568 92.0886
lradius 42.1399
lwrist -23.0092
lhand -12.597 -322.72
lfingers 7.12502
lthumb 13.4817 1146.82
rfemur -68.8893 20.8158 19.9113
rtibia 56.4636
rfoot -18.1548 -6.78097
rtoes 4.63961
lfemur -66.0956 3.90234 14.6406
ltibia 50.826
lfoot -13.6355 10.3467
ltoes -34.0935
3133
root 13.357 15.0474 2.34464 26.9876 19.4477 -11.1727
lowerback 31.2433 -3.49325 -1.00365
upperback -3.33169 -3.81048 5.8487
thorax -20.2183 -0.999594 9.03186
lowerneck 7.37237 -18.8842 -10.5662
upperneck -27.4615 -21.5957 37.6619
head -3.06228 -13.7586 14.4221
rclavicle -3.73715e-014 9.54166e-015
rhumerus -76.0949 30.9626 -107.275
rradius 38.4519
rwrist -5.82124
rhand -10.6087 28.9242
rfingers 7.12502
rthumb 15.3975 359.518
lclavicle -3.73715e-014 9.54166e-015
lhumerus -71.3367 -11.7443 91.744
lradius 41.9483
lwrist -22.9904
lhand -12.8389 -322.67
lfingers 7.12502
lthumb 13.2485 1146.89
rfemur -68.8966 20.7177 19.8131
rtibia 56.4059
rfoot -18.2001 -7.33457
rtoes 0.142488
lfemur -66.0362 3.8679 14.4965
ltibia 50.7813
lfoot -13.4824 10.5477
ltoes -34.9609
3134
root 13.3614 15.0561 2.3423 27.0364 19.2395 -11.1236
lowerback 31.2316 -3.47082 -1.09186
upperback -3.37225 -3.82295 5.8127
thorax -20.2593 -0.994179 9.04905
lowerneck 7.58736 -18.7846 -10.6572
upperneck -27.507 -21.4647 37.669
head -3.13122 -13.7047 14.5026
rclavicle 2.46493e-014 1.90833e-014
rhumerus -75.7636 30.882 -106.716
rradius 38.6732
rwrist -7.12177
rhand -7.38653 28.2145
rfingers 7.12502
rthumb 18.499 359.074
lclavicle 2.46493e-014 1.90833e-014
lhumerus -71.379 -11.5322 91.3251
lradius 41.7825
lwrist -23.3059
lhand -13.4252 -322.252
lfingers 7.12502
lthumb 12.6833 1147.34
rfemur -68.8889 20.7319 19.7347
rtibia 56.3424
rfoot -18.2099 -7.57022
rtoes -2.24024
lfemur -65.942 3.91013 14.3876
ltibia 50.7768
lfoot -13.5156 10.594
ltoes -34.8865
3135
root 13.3639 15.0596 2.33468 27.1934 19.0014 -11.0539
lowerback 31.1485 -3.40431 -1.21837
upperback -3.42713 -3.79238 5.78068
thorax -20.2878 -0.967039 9.06969
lowerneck 7.89971 -18.6742 -10.6494
upperneck -27.7752 -21.2609 37.6709
head -3.3166 -13.6425 14.6285
rclavicle -3.89618e-014 9.54166e-015
rhumerus -75.2106 30.6564 -105.91
rradius 38.8115
rwrist -8.57729
rhand -4.32999 27.2115
rfingers 7.12502
rthumb 21.437 358.378
lclavicle -3.89618e-014 9.54166e-015
lhumerus -71.4701 -11.6184 91.2815
lradius 41.7148
lwrist -23.3113
lhand -13.8017 -322.459
lfingers 7.12502
lthumb 12.3203 1147.16
rfemur -69.0687 20.7901 19.5409
rtibia 56.267
rfoot -18.2392 -7.23186
rtoes -1.1167
lfemur -66.008 3.95962 14.3432
ltibia 50.8058
lfoot -13.6292 10.4618
ltoes -33.3737
3136
root 13.3678 15.0597 2.32383 27.3356 18.6828 -10.968
lowerback 31.1493 -3.30785 -1.40813
upperback -3.46448 -3.7504 5.72271
thorax -20.3347 -0.928788 9.09463
lowerneck 7.94043 -18.639 -10.5608
upperneck -27.8274 -21.1968 37.56
head -3.38835 -13.6118 14.6075
rclavicle 9.54166e-015 -6.36111e-015
rhumerus -74.7476 30.5484 -105.365
rradius 38.8985
rwrist -9.8994
rhand -2.49825 26.1233
rfingers 7.12502
rthumb 23.1954 357.5
lclavicle 9.54166e-015 -6.36111e-015
lhumerus -71.5072 -11.7033 91.2323
lradius 41.6807
lwrist -23.2428
lhand -13.9625 -323.123
lfingers 7.12502
lthumb 12.1652 1146.5
rfemur -69.2407 20.8757 19.3141
rtibia 56.1681
rfoot -18.1441 -6.99959
rtoes -0.264001
lfemur -66.0061 4.01457 14.2526
ltibia 50.8542
lfoot -13.6627 10.5706
ltoes -32.3829
3137
root 13.3745 15.0595 2.31555 27.3425 18.3951 -11.1264
lowerback 31.2153 -3.24063 -1.41134
upperback -3.47112 -3.66251 5.71549
thorax -20.3909 -0.888939 9.05472
lowerneck 7.84628 -18.6292 -10.5163
upperneck -27.7038 -21.2092 37.4418
head -3.36022 -13.5953 14.5298
rclavicle 5.64548e-014 -9.54166e-015
rhumerus -74.5755 30.5579 -105.178
rradius 38.9922
rwrist -10.2844
rhand -2.8721 25.4134
rfingers 7.12502
rthumb 22.8367 356.745
lclavicle 5.64548e-014 -9.54166e-015
lhumerus -71.5054 -11.6214 90.9936
lradius 41.6396
lwrist -23.3418
lhand -13.4839 -323.382
lfingers 7.12502
lthumb 12.6267 1146.22
rfemur -69.2799 21.057 19.339
rtibia 56.0344
rfoot -17.9217 -7.09729
rtoes -1.5052
lfemur -65.8921 4.21493 14.3015
ltibia 50.9114
lfoot -13.6977 10.7193
ltoes -32.1974
